<?xml version="1.0" encoding="UTF-8" standalone="no"?>
<svg
   width="397"
   height="100"
   version="1.1"
   id="svg1"
   sodipodi:docname="Adventures.svg"
   inkscape:version="1.4.2 (f4327f4, 2025-05-13)"
   xmlns:inkscape="http://www.inkscape.org/namespaces/inkscape"
   xmlns:sodipodi="http://sodipodi.sourceforge.net/DTD/sodipodi-0.dtd"
   xmlns="http://www.w3.org/2000/svg"
   xmlns:svg="http://www.w3.org/2000/svg">
  <defs
     id="defs1" />
  <sodipodi:namedview
     id="namedview1"
     pagecolor="#505050"
     bordercolor="#ffffff"
     borderopacity="1"
     inkscape:showpageshadow="0"
     inkscape:pageopacity="0"
     inkscape:pagecheckerboard="1"
     inkscape:deskcolor="#505050"
     inkscape:zoom="5.014801"
     inkscape:cx="80.162702"
     inkscape:cy="41.576924"
     inkscape:window-width="1920"
     inkscape:window-height="1013"
     inkscape:window-x="-9"
     inkscape:window-y="-9"
     inkscape:window-maximized="1"
     inkscape:current-layer="svg1"
     showgrid="false" />
  <g
     id="g1">
    <image
       height="92"
       width="92"
       href="Rainbow-1.png"
       x="16"
       y="6"
       id="Logo1" />
    <image
       height="100"
       width="100"
       href="Rainbow-2.png"
       x="100"
       y="0"
       id="Logo2" />
  </g>
	<path
		fill="Yellow"
		stroke="Yellow"
		stroke-width="1"
		stroke-linejoin="round"
		stroke-linecap="round"
		d="
		M 0,0 V 100 
		M 10,0 V 100 
		M 20,0 V 100 
		M 30,0 V 100 
		M 40,0 V 100 
		M 50,0 V 100 
		M 60,0 V 100 
		M 70,0 V 100 
		M 80,0 V 100 
		M 90,0 V 100 
		M 100,0 V 100

		M 0,0 H 100 
		M 0,10 H 100 
		M 0,20 H 100 
		M 0,30 H 100 
		M 0,40 H 100 
		M 0,50 H 100 
		M 0,60 H 100 
		M 0,70 H 100 
		M 0,80 H 100 
		M 0,90 H 100 
		M 0,100 H 100"
		id="Grille" />
  <g
     id="DessinSVG"
     style="opacity:0.6;">
    <circle
       cx="62"
       cy="52"
       stroke="#000000"
       stroke-width="10"
       fill="none"
       id="circle1"
       r="39" />
    <path
       fill="#000000"
       stroke="#000000"
       stroke-width="0"
       stroke-linejoin="round"
       stroke-linecap="round"
       d="m 50,39 
		C 50,25 72,25 72,39
		85,39 85,52 79,54
		H 48
		C 42,54 40,39 50,39
		 z"
       id="Etoile"
 /> <!-- 12,-1,7,6,6,7,-1,12 -->
  </g>
  <g
     id="Texte"
     style="opacity:1;"
     transform="translate(131,70)">
    <text
       fill="black"
       font-size="50"
       font-family="Germania One"
       id="text1"
       transform="scale(0.955,1)">ADVENTURES</text>
  </g>

</svg>
